<svg width="315" height="315" viewBox="0 0 315 315" fill="none" xmlns="http://www.w3.org/2000/svg">
<g clip-path="url(#clip0_230_633)">
<mask id="mask0_230_633" style="mask-type:luminance" maskUnits="userSpaceOnUse" x="65" y="130" width="185" height="185">
<path d="M250 130H65V315H250V130Z" fill="white"/>
</mask>
<g mask="url(#mask0_230_633)">
<mask id="mask1_230_633" style="mask-type:luminance" maskUnits="userSpaceOnUse" x="65" y="130" width="185" height="185">
<path d="M250 130H65V315H250V130Z" fill="white"/>
</mask>
<g mask="url(#mask1_230_633)">
<mask id="mask2_230_633" style="mask-type:luminance" maskUnits="userSpaceOnUse" x="65" y="168" width="185" height="147">
<path d="M250 168.612H65V315H250V168.612Z" fill="white"/>
</mask>
<g mask="url(#mask2_230_633)">
<path d="M104.1 200.887H142.551L172.449 229.663V168.612H98.8508C89.873 168.612 81.263 172.139 74.9147 178.418C68.5664 184.696 65 193.212 65 202.091V281.522C65.0006 290.4 68.5673 298.916 74.9154 305.194C81.2635 311.472 89.8733 314.999 98.8508 315H104.1V200.887Z" fill="#007AFF"/>
<path d="M216.15 168.612H210.9V282.723H172.45L142.551 253.947V315H216.15C220.595 315 224.997 314.134 229.104 312.452C233.212 310.77 236.944 308.304 240.088 305.195C243.231 302.086 245.725 298.396 247.426 294.334C249.127 290.272 250.003 285.918 250.003 281.522V202.091C250.003 197.694 249.128 193.34 247.427 189.278C245.725 185.216 243.232 181.525 240.088 178.416C236.944 175.308 233.212 172.841 229.105 171.159C224.998 169.477 220.595 168.612 216.15 168.612Z" fill="#007AFF"/>
<path style="mix-blend-mode:multiply" d="M65 253.664H104.1V200.887H92.9783C89.3037 200.887 85.6651 201.603 82.2703 202.993C78.8756 204.384 75.791 206.423 73.1929 208.993C70.5948 211.563 68.5341 214.614 67.1283 217.972C65.7226 221.329 64.9994 224.928 65 228.562V253.664Z" fill="url(#paint0_linear_230_633)"/>
<path style="mix-blend-mode:multiply" d="M250.002 229.948H210.899V282.723H222.021C225.696 282.723 229.333 282.008 232.728 280.617C236.123 279.227 239.207 277.189 241.806 274.62C244.404 272.051 246.465 269.001 247.871 265.644C249.277 262.287 250.002 258.689 250.002 255.055V229.948Z" fill="url(#paint1_linear_230_633)"/>
</g>
<path d="M230.515 168.612C241.276 168.612 250 159.969 250 149.306C250 138.644 241.276 130 230.515 130C219.754 130 211.03 138.644 211.03 149.306C211.03 159.969 219.754 168.612 230.515 168.612Z" fill="url(#paint2_linear_230_633)"/>
</g>
</g>
</g>
<path d="M260.591 122.182V169.432C260.591 178.5 258.205 187.091 253.432 194.25C220.023 243.409 99.75 241.5 63 197.114C56.3182 189.477 53.4546 178.977 53.4546 168.955V122.659L137.455 159.409C143.182 161.796 149.864 163.705 156.068 163.705C165.136 164.182 174.205 162.273 182.318 158.455L260.591 122.182Z" fill="#0B1114"/>
<path opacity="0.1" d="M182.795 155.114C174.682 158.932 165.614 160.841 156.545 160.364C149.864 159.886 143.659 158.454 137.932 156.068L53.4546 119.318V136.977L137.455 173.727C143.182 176.114 149.864 178.023 156.068 178.023C165.136 178.5 174.205 176.591 182.318 172.773L260.114 136.023V118.364L182.795 155.114Z" fill="white"/>
<path d="M23.3863 68.7273L138.886 19.5682C144.614 17.1818 151.295 15.75 157.5 15.75C164.182 15.75 170.386 17.1818 176.591 19.5682L293.523 69.6818C299.25 72.0682 303.068 76.8409 304.977 82.5682C307.841 92.1136 303.068 102.136 294 106.432L182.795 158.455C174.682 162.273 165.614 164.182 156.545 163.705C149.864 163.227 143.659 161.795 137.932 159.409L22.909 109.295C13.3636 105 8.11359 94.9773 10.0227 84.4773C11.4545 77.3182 16.7045 71.5909 23.3863 68.7273Z" fill="#3B3E3F"/>
<path d="M30.5455 213.818C28.1591 213.818 25.7727 211.909 25.7727 209.046L25.2955 112.636C25.2955 110.25 26.7273 108.341 29.1136 107.864L135.545 82.5683C137.932 82.091 140.795 83.5228 141.273 85.9092C141.75 88.2955 140.318 91.1592 137.932 91.6364L34.8409 116.455L35.3182 209.046C35.3182 211.909 33.4091 213.818 30.5455 213.818ZM31.5 299.25C22.4318 299.25 15.75 292.091 15.75 283.5C15.75 282.546 15.75 281.591 15.75 280.636L22.4318 241.977C24.8182 243.409 28.1591 244.364 31.5 244.364C34.8409 244.364 37.7045 243.409 40.5682 241.977L47.25 280.636C48.6818 290.182 41.0455 299.25 31.5 299.25Z" fill="#FFD550"/>
<path opacity="0.1" d="M25.7727 198.068V209.045C25.7727 211.909 28.1591 213.818 30.5454 213.818C33.4091 213.818 35.3182 211.432 35.3182 209.045V198.068C33.8863 198.068 32.4545 197.591 31.0227 197.591C29.5909 197.591 27.6818 198.068 25.7727 198.068ZM31.5 244.364C28.1591 244.364 25.2954 243.409 22.4318 241.977L20.5227 253.909C23.8636 255.341 27.6818 256.295 31.5 256.295C35.3182 256.295 39.1363 255.341 42.4772 253.909L40.5682 241.977C37.7045 243.409 34.3636 244.364 31.5 244.364Z" fill="#3B3E3F"/>
<path d="M53.4545 226.705C53.4545 238.636 43.4318 248.659 31.5 248.659C19.0909 248.659 9.54541 238.636 9.54541 226.705C9.54541 214.773 19.0909 204.75 31.5 204.75C43.4318 204.75 53.4545 214.773 53.4545 226.705Z" fill="#FFAF57"/>
<path d="M183.75 84.4773C183.75 92.1137 171.818 98.3182 157.5 98.3182C142.705 98.3182 131.25 92.1137 131.25 84.4773C131.25 76.8409 143.182 70.6364 157.5 70.6364C171.818 70.1591 183.75 76.3637 183.75 84.4773Z" fill="#0B1114"/>
<defs>
<linearGradient id="paint0_linear_230_633" x1="84.5525" y1="250.532" x2="84.5525" y2="200.793" gradientUnits="userSpaceOnUse">
<stop stop-color="white"/>
<stop offset="1" stop-color="#001EB2"/>
</linearGradient>
<linearGradient id="paint1_linear_230_633" x1="230.449" y1="233.077" x2="230.449" y2="282.817" gradientUnits="userSpaceOnUse">
<stop stop-color="white"/>
<stop offset="1" stop-color="#001EB2"/>
</linearGradient>
<linearGradient id="paint2_linear_230_633" x1="230.515" y1="130" x2="230.725" y2="168.612" gradientUnits="userSpaceOnUse">
<stop stop-color="#007AFF"/>
<stop offset="1" stop-color="#001EB2"/>
</linearGradient>
<clipPath id="clip0_230_633">
<rect width="185" height="185" fill="white" transform="translate(65 130)"/>
</clipPath>
</defs>
</svg>
